<?xml version="1.0" ?><svg style="enable-background:new 0 0 64 64;" version="1.1" viewBox="0 0 64 64" xml:space="preserve" xmlns="http://www.w3.org/2000/svg" xmlns:xlink="http://www.w3.org/1999/xlink"><g id="basketball"/><g id="field"/><g id="basket"/><g id="trophy"/><g id="league_1_"/><g id="player"/><g id="uniform_1_"><path d="M53.9,26.6c-2.8-7.6,0-16.2,0-16.3c0.1-0.3,0.1-0.5-0.1-0.8c-0.1-0.2-0.3-0.4-0.6-0.5L44,6.2c-0.1-1.1-0.7-2-1.6-2.6   c-1-0.7-2.2-0.8-3.3-0.3c-4.7,1.9-9.5,1.9-14.2,0c-1.1-0.4-2.3-0.3-3.3,0.3c-0.9,0.6-1.5,1.6-1.6,2.6L10.7,9   c-0.3,0.1-0.5,0.3-0.6,0.5c-0.1,0.2-0.1,0.5-0.1,0.8c0,0.1,2.8,8.8,0,16.3c-0.1,0.4,0,0.8,0.3,1.1c0.1,0.1,7.5,6.9,3.7,32.1   c0,0.3,0,0.6,0.2,0.8c0.2,0.2,0.5,0.3,0.8,0.3h17h17c0.3,0,0.6-0.1,0.8-0.3c0.2-0.2,0.3-0.5,0.2-0.8c-3.8-25,3.6-32,3.7-32.1   C54,27.5,54.1,27,53.9,26.6z M50.8,21.3c0.1,0.7,0.1,1.4,0.3,2.1c-2.1,1.5-9.7,8.8-9,35.6h-2C39.4,31.5,48.2,23.1,50.8,21.3z    M22.8,5.3c0.4-0.3,0.9-0.3,1.4-0.1c5.2,2.1,10.5,2.1,15.7,0c0.5-0.2,1-0.1,1.4,0.1c0.3,0.2,0.6,0.6,0.7,1   c-6.7,3.7-13.2,3.7-19.9,0C22.2,5.8,22.4,5.5,22.8,5.3z M21.2,8c3.6,2,7.2,3,10.8,3s7.2-1,10.8-3l8.9,2.7c-0.4,1.5-1.1,4.7-1.1,8.4   c0,0-0.1,0-0.1,0C50,19.3,37.3,25.6,38,59h-6h-6c0.7-33.4-12-39.7-12.6-39.9c0,0-0.1,0-0.1,0c0-3.7-0.7-6.9-1.1-8.4L21.2,8z    M13.2,21.3c2.5,1.8,11.4,10,10.8,37.7h-2c0.7-26.7-6.9-34.1-9-35.6C13.1,22.7,13.2,22,13.2,21.3z M12.1,26.8   c0.1-0.4,0.2-0.8,0.3-1.1c2.3,2.1,8.1,9.9,7.5,33.4h-3.9C19.3,37.1,13.9,28.8,12.1,26.8z M47.8,59H44c-0.6-23.2,5.2-31.1,7.5-33.4   c0.1,0.4,0.2,0.7,0.3,1.1C50.1,28.8,44.7,37.1,47.8,59z"/></g><g id="scoreboard"/><g id="medal"/><g id="shoe_1_"/><g id="ticket_1_"/><g id="event_1_"/><g id="time"/><g id="strategy_1_"/><g id="supporter"/><g id="whistle"/><g id="podium"/><g id="bag"/><g id="bottle"/><g id="badge"/></svg>