<?xml version="1.0" ?><svg style="enable-background:new 0 0 64 64;" version="1.1" viewBox="0 0 64 64" xml:space="preserve" xmlns="http://www.w3.org/2000/svg" xmlns:xlink="http://www.w3.org/1999/xlink"><g id="basketball"/><g id="field"/><g id="basket"/><g id="trophy"/><g id="league_1_"/><g id="player"/><g id="uniform_1_"/><g id="scoreboard"/><g id="medal"/><g id="shoe_1_"/><g id="ticket_1_"/><g id="event_1_"/><g id="time"/><g id="strategy_1_"/><g id="supporter"><g><path d="M49.4,16c-0.6-0.6-1.5-1-2.4-1c-0.9,0-1.8,0.4-2.4,1.1h0l-5.7,6.7c0-0.3,0.1-0.6,0.1-0.9c0-3.9-3.1-7-7-7s-7,3.1-7,7    c0,0.3,0,0.6,0.1,0.9l-5.7-6.7c-0.6-0.7-1.4-1.1-2.4-1.1c-0.9,0-1.8,0.3-2.4,1c-1.1,1.1-1.3,2.7-0.5,4l7.8,12.4    c0.7,1.2,1.1,2.5,1.1,3.9V48c0,0.6,0.4,1,1,1h16c0.6,0,1-0.4,1-1V36.4c0-1.4,0.4-2.7,1.1-3.9l7.8-12.4    C50.7,18.8,50.5,17.1,49.4,16z M32,17c2.8,0,5,2.2,5,5s-2.2,5-5,5s-5-2.2-5-5S29.2,17,32,17z M48.2,19l-7.8,12.4    c-0.9,1.5-1.4,3.2-1.4,5V47H25V36.4c0-1.8-0.5-3.5-1.4-5L15.8,19c-0.3-0.5-0.2-1.1,0.2-1.6c0.3-0.3,0.6-0.4,0.9-0.4    c0.4,0,0.7,0.2,0.9,0.4l7,8.2c1.6,1.9,3.9,3,6.4,3.2c0.2,0,0.5,0,0.7,0s0.5,0,0.7,0c2.5-0.2,4.8-1.3,6.4-3.2l7-8.2h0    c0.2-0.3,0.6-0.4,0.9-0.4c0.4,0,0.7,0.1,0.9,0.4C48.4,17.9,48.5,18.5,48.2,19z"/><path d="M15.8,37.2c0.8-0.9,1.2-2,1.2-3.2c0-2.8-2.2-5-5-5s-5,2.2-5,5c0,1.2,0.5,2.4,1.2,3.2C5.2,38,3,40.8,3,44v4    c0,0.6,0.4,1,1,1h16c0.6,0,1-0.4,1-1v-4C21,40.8,18.8,38,15.8,37.2z M12,31c1.7,0,3,1.3,3,3s-1.3,3-3,3s-3-1.3-3-3S10.3,31,12,31z     M19,47H5v-3c0-2.8,2.2-5,5-5h4c2.8,0,5,2.2,5,5V47z"/><path d="M55.8,37.2c0.8-0.9,1.2-2,1.2-3.2c0-2.8-2.2-5-5-5s-5,2.2-5,5c0,1.2,0.5,2.4,1.2,3.2C45.2,38,43,40.8,43,44v4    c0,0.6,0.4,1,1,1h16c0.6,0,1-0.4,1-1v-4C61,40.8,58.8,38,55.8,37.2z M52,31c1.7,0,3,1.3,3,3s-1.3,3-3,3s-3-1.3-3-3S50.3,31,52,31z     M59,47H45v-3c0-2.8,2.2-5,5-5h4c2.8,0,5,2.2,5,5V47z"/></g></g><g id="whistle"/><g id="podium"/><g id="bag"/><g id="bottle"/><g id="badge"/></svg>