<svg fill="#000000" xmlns="http://www.w3.org/2000/svg"  viewBox="0 0 80 80" width="80px" height="80px"><path d="M 40 6 C 23.445955 6 10 19.383206 10 35.869141 C 10 37.595296 10.574776 39.149834 11.642578 40.259766 C 12.71038 41.369697 14.252437 42 16 42 L 16 43.603516 L 8.5976562 51.445312 C 6.4716613 53.698431 6.4716614 57.301569 8.5976562 59.554688 L 16 67.396484 L 16 68 A 1.0001 1.0001 0 1 0 18 68 L 18 67 L 18 59 L 18 53 L 18 44 L 18 41 L 18 39 A 1.0001 1.0001 0 0 0 16.984375 37.986328 A 1.0001 1.0001 0 0 0 16 39 L 16 40 C 14.717563 40 13.758683 39.574365 13.083984 38.873047 C 12.409286 38.171729 12 37.159985 12 35.869141 C 12 20.469075 24.522045 8 40 8 C 55.477955 8 68 20.469075 68 35.869141 C 68 37.159985 67.590714 38.171729 66.916016 38.873047 C 66.241317 39.574365 65.282437 40 64 40 L 64 39 A 1.0001 1.0001 0 0 0 62.984375 37.986328 A 1.0001 1.0001 0 0 0 62 39 L 62 41 L 62 42 L 62 44 L 62 53 L 62 59 L 62 67 L 62 68 A 1.0001 1.0001 0 1 0 64 68 L 64 67.398438 L 71.408203 59.556641 C 73.536568 57.303577 73.536883 53.6975 71.408203 51.445312 L 64 43.601562 L 64 42 C 65.747563 42 67.28962 41.369697 68.357422 40.259766 C 69.425224 39.149834 70 37.595296 70 35.869141 C 70 19.383206 56.554045 6 40 6 z M 27.501953 20 C 23.915953 20 21.001953 22.913047 21.001953 26.498047 C 21.001953 30.083047 23.916953 32.998047 27.501953 32.998047 C 27.654855 32.998047 27.910509 33.020158 28.212891 32.996094 C 27.73705 34.118097 27.306532 35.40534 27.111328 36.867188 A 1.0001 1.0001 0 1 0 29.09375 37.132812 C 29.339499 35.292445 30.028514 33.687529 30.697266 32.384766 C 31.818535 30.196642 35.266225 28 40 28 C 44.733775 28 48.181465 30.196642 49.302734 32.384766 C 49.971486 33.687529 50.660501 35.292445 50.90625 37.132812 A 1.0001 1.0001 0 0 0 50.966797 37.365234 L 50.953125 37.435547 L 51.056641 37.546875 A 1.0001 1.0001 0 0 0 51.308594 37.814453 L 51.566406 38.089844 L 51.912109 38.152344 L 52.712891 37.751953 L 52.753906 37.523438 A 1.0001 1.0001 0 0 0 52.888672 36.867188 C 52.694669 35.414336 52.26721 34.134896 51.794922 33.017578 C 52.058998 33.02739 52.302769 32.998047 52.501953 32.998047 C 56.086953 32.998047 59.001953 30.083047 59.001953 26.498047 C 59.001953 22.913047 56.086953 20 52.501953 20 C 48.916953 20 46.001953 22.913047 46.001953 26.498047 C 46.001953 26.676526 45.977415 26.89462 45.982422 27.128906 C 44.262913 26.418075 42.238215 26 40 26 C 37.731729 26 35.681423 26.427813 33.947266 27.15625 C 33.968692 26.938339 34 26.722121 34 26.498047 C 34 22.913047 31.086953 20 27.501953 20 z M 52.501953 22.164062 C 54.300953 22.164062 55.751953 23.615062 55.751953 25.414062 C 55.750953 27.213062 54.299953 28.664062 52.501953 28.664062 C 50.703953 28.664062 49.251953 27.212063 49.251953 25.414062 C 49.251953 23.616062 50.702953 22.164062 52.501953 22.164062 z M 27.501953 22.166016 C 29.299953 22.166016 30.751953 23.617016 30.751953 25.416016 C 30.750953 27.214016 29.299953 28.666016 27.501953 28.666016 C 25.703953 28.666016 24.251953 27.214016 24.251953 25.416016 C 24.251953 23.618016 25.703953 22.166016 27.501953 22.166016 z M 17 30 A 1 1 0 0 0 17 32 A 1 1 0 0 0 17 30 z M 63 30 A 1 1 0 0 0 63 32 A 1 1 0 0 0 63 30 z M 17 34 A 1 1 0 0 0 17 36 A 1 1 0 0 0 17 34 z M 40 34 A 6 3 0 0 0 36.548828 39.451172 C 36.423201 41.352024 35.92305 43.038663 35.222656 44.197266 C 34.477791 45.429434 33.613779 46 32.800781 46 A 1.0001 1.0001 0 0 0 32.736328 46.001953 L 32.646484 45.986328 L 32.568359 46.025391 A 1.0001 1.0001 0 0 0 32.132812 46.244141 L 31.845703 46.388672 L 31.6875 47.269531 L 31.960938 47.560547 A 1.0001 1.0001 0 0 0 32.177734 47.792969 L 32.179688 47.792969 L 32.300781 47.923828 L 32.525391 47.964844 A 1.0001 1.0001 0 0 0 32.800781 48 C 34.525783 48 35.964959 46.834753 36.933594 45.232422 C 37.798841 43.801116 38.338262 41.950839 38.513672 39.904297 A 6 3 0 0 0 40 40 A 6 3 0 0 0 41.486328 39.902344 C 41.661551 41.949666 42.200885 43.800662 43.066406 45.232422 C 44.035041 46.834751 45.474217 48 47.199219 48 A 1.0001 1.0001 0 1 0 47.199219 46 C 46.386221 46 45.522209 45.429435 44.777344 44.197266 C 44.077192 43.039063 43.577027 41.353165 43.451172 39.453125 A 6 3 0 0 0 40 34 z M 63 34 A 1 1 0 0 0 63 36 A 1 1 0 0 0 63 34 z M 28.226562 39.980469 L 27.425781 40.382812 L 27.267578 41.263672 L 27.880859 41.917969 L 28.226562 41.980469 L 29.029297 41.580078 L 29.185547 40.697266 L 28.574219 40.042969 L 28.226562 39.980469 z M 51.746094 40.132812 L 50.945312 40.533203 L 50.787109 41.416016 L 51.398438 42.070312 L 51.746094 42.132812 L 52.546875 41.730469 L 52.705078 40.847656 L 52.09375 40.193359 L 51.746094 40.132812 z M 29.537109 43.732422 L 28.736328 44.132812 L 28.578125 45.015625 L 29.189453 45.669922 L 29.537109 45.732422 L 30.337891 45.330078 L 30.496094 44.449219 L 29.884766 43.794922 L 29.537109 43.732422 z M 50.380859 43.863281 L 49.580078 44.263672 L 49.421875 45.146484 L 50.035156 45.800781 L 50.380859 45.863281 L 51.181641 45.460938 L 51.339844 44.578125 L 50.728516 43.923828 L 50.380859 43.863281 z M 16 46.515625 L 16 52.697266 C 15.388963 53.613574 14.778717 54.529648 14.167969 55.445312 A 1.0001 1.0001 0 0 0 14.167969 56.554688 C 14.778717 57.470351 15.388963 58.386426 16 59.302734 L 16 64.484375 L 10.052734 58.183594 L 10.052734 58.181641 C 8.6678983 56.712634 8.6671193 54.286828 10.052734 52.818359 L 16 46.515625 z M 64 46.515625 L 69.953125 52.818359 A 1.0001 1.0001 0 0 0 69.955078 52.818359 C 71.342398 54.286172 71.340807 56.712705 69.953125 58.181641 L 64 64.484375 L 64 59.302734 C 64.611037 58.386426 65.221283 57.470352 65.832031 56.554688 A 1.0001 1.0001 0 0 0 65.832031 55.445312 C 65.221283 54.529649 64.611037 53.613574 64 52.697266 L 64 46.515625 z"/></svg>